<?xml version="1.0" standalone="no"?>
<!DOCTYPE svg PUBLIC "-//W3C//DTD SVG 20010904//EN"
 "http://www.w3.org/TR/2001/REC-SVG-20010904/DTD/svg10.dtd">
<svg version="1.0" xmlns="http://www.w3.org/2000/svg"
 width="260.000000pt" height="260.000000pt" viewBox="0 0 260.000000 260.000000"
 preserveAspectRatio="xMidYMid meet">
<metadata>
Created by potrace 1.14, written by Peter Selinger 2001-2017
</metadata>
<g transform="translate(0.000000,260.000000) scale(0.100000,-0.100000)"
fill="#000000" stroke="none">
<path d="M898 2130 c-355 -62 -626 -329 -695 -685 -16 -81 -8 -275 15 -357 84
-299 300 -514 607 -604 53 -15 122 -18 565 -22 540 -4 597 -1 697 44 299 131
425 477 281 771 -47 96 -149 197 -251 247 -79 39 -193 65 -255 60 -31 -3 -34
0 -68 69 -124 246 -306 395 -566 461 -93 24 -244 31 -330 16z m312 -215 c106
-33 191 -84 275 -170 82 -83 117 -138 158 -254 32 -92 50 -103 180 -106 150
-4 222 -31 301 -111 25 -25 58 -71 72 -102 24 -49 28 -70 28 -147 1 -77 -3
-98 -26 -147 -37 -79 -98 -142 -177 -181 l-66 -32 -525 0 -525 1 -72 25 c-187
67 -339 213 -402 387 -100 273 -5 575 232 743 70 49 170 93 248 108 66 13 236
5 299 -14z"/>
</g>
</svg>
